<svg xmlns="http://www.w3.org/2000/svg" width="64" height="64" viewBox="0 0 64 64">
<defs><linearGradient id="g" x1="0" y1="0" x2="1" y2="1"><stop offset="0" stop-color="#002b55"/><stop offset=".7" stop-color="#063f70"/><stop offset="1" stop-color="#d09a2e"/></linearGradient></defs>
<rect width="64" height="64" rx="12" fill="#002b55"/>
<g transform="translate(7,9) scale(0.26)">
<path d="M82 8C44 8 18 39 18 76c0 50 48 86 86 123 38-37 86-73 86-123 0-37-26-68-64-68-16 0-30 8-42 24C112 16 98 8 82 8z" fill="none" stroke="url(#g)" stroke-width="16" stroke-linecap="round" stroke-linejoin="round"/>
<circle cx="70" cy="84" r="13" fill="#fff"/><circle cx="138" cy="84" r="13" fill="#fff"/><circle cx="104" cy="73" r="19" fill="#fff"/>
<path d="M55 151c8-35 29-50 49-17 20-33 41-18 49 17" fill="none" stroke="#fff" stroke-width="16" stroke-linecap="round"/>
</g>
</svg>
