<svg xmlns="http://www.w3.org/2000/svg" width="760" height="190" viewBox="0 0 760 190"><defs><linearGradient id="g" x1="0" x2="1"><stop offset="0" stop-color="#002b55"/><stop offset=".55" stop-color="#063b70"/><stop offset="1" stop-color="#c8962f"/></linearGradient></defs><rect width="760" height="190" fill="white"/><g transform="translate(28,22)"><path d="M70 12 C27 12 8 51 26 86 C41 116 70 139 86 154 C102 139 131 116 146 86 C164 51 145 12 102 12 C95 12 90 15 86 19 C82 15 77 12 70 12Z" fill="none" stroke="url(#g)" stroke-width="16" stroke-linecap="round"/><circle cx="65" cy="70" r="11" fill="#002b55"/><circle cx="106" cy="70" r="11" fill="#002b55"/><path d="M54 124 C58 93 73 88 86 124 C99 88 114 93 118 124" fill="none" stroke="#002b55" stroke-width="16" stroke-linecap="round"/></g><text x="205" y="70" font-family="Georgia,serif" font-size="47" font-weight="700" fill="#002b55" letter-spacing="1">HONOR CARE</text><text x="207" y="112" font-family="Georgia,serif" font-size="27" fill="#c8962f" letter-spacing="13">INTERNATIONAL</text><line x1="207" y1="125" x2="622" y2="125" stroke="#c8962f" stroke-width="2"/><text x="207" y="150" font-family="Arial,Helvetica,sans-serif" font-size="15" font-weight="700" fill="#002b55">ALLE ZORG. ÉÉN OPLOSSING. ONE COMPLETE CARE.</text></svg>